<?xml version="1.0" encoding="utf-8"?>
<!-- Generator: Adobe Illustrator 26.0.2, SVG Export Plug-In . SVG Version: 6.00 Build 0)  -->
<svg version="1.1" id="Layer_1" xmlns="http://www.w3.org/2000/svg" xmlns:xlink="http://www.w3.org/1999/xlink" x="0px" y="0px"
	 viewBox="0 0 840 300" enable-background="new 0 0 840 300" xml:space="preserve">
<path fill="#EFEFEF" d="M65,18c-16,7-34,26-40,50c-7,31,23,44,25,39c3-5-5-6-7-22c-2-21,7-43,19-53c3-2,2,0,2,5v102c0,21-1,28-3,35
	c-1,7-4,11-2,13s12-3,17-10c7-9,9-20,10-32V26C86,21,72,15,65,18 M640,120c0,11-3,20-6,26c-6,12-18,16-23-1c-3-10-4-26-1-39
	c2-13,8-23,17-22C637,84,641,97,640,120z M478,190c0,19-3,35-9,40c-9,7-21,1-19-12c2-12,13-25,28-40V190z M476,120c-1,10-4,20-6,26
	c-6,12-19,16-24-1c-4-12-3-28-1-37c2-13,8-24,18-24C472,84,477,94,476,120z M382,119c-1,11-3,20-6,27c-7,12-19,16-24-1
	c-4-13-3-30-1-39c2-14,8-23,18-22C378,84,383,97,382,119z M812,132c-2,0-3,3-4,7c-3,14-6,17-10,17c-5,0-9-7-10-21V83c0-4-1-8-12-12
	c-5-2-12-4-15,4c-7.1,16-12.1,32.8-15,50c-1-6-2-17-2-41c-1-4-1-8-7-11c-3-2-13-6-16-2s-7,13-11,25l-5,15V77c0-4-2-5-3-5l-12-3
	c-4,0-5,2-5,5v58c-2,11-8,25-15,25s-10-6-10-33l1-34V77c0-3-6-5-9-5l-7-1c-2,0-4,2-4,4v4c-4-6-10-9-13-10c-10-3-21-1-29,10
	c-6,9-10,19-11,33c-2,11-1,22,1,31c-3,10-7,14-12,14c-7,0-12-11-11-31c0-13,3-22,6-35c1-6,0-8-3-11c-2-3-7-4-13-3l-19,4l1-4
	c2-15-14-14-19-9c-3,3-5,6-6,12c-1,9,7,13,7,13c-4.4,18.5-12.6,35.8-24,51c-0.3-18-0.3-36,0-54l1-12c0-3-2-4-5-5l-9-2c-5-1-7,2-7,4
	v4c-4-6-9-9-13-10c-10-3-21-1-29,10c-6,9-10,21-11,33v29c-1,8-6,16-11,16c-7,0-10-6-10-33V90l1-13c0-3-6-5-9-5l-8-1c-2,0-4,2-4,4v4
	c-4-6-9-9-13-10c-10-3-20-1-28,10c-6,7-10,15-12,33l-1,15c-2,12-11,27-19,27c-4,0-8-9-8-27l1-62h27c3,0,6-12,3-13l-16-1l-13-1l1-25
	c0-2-3-4-4-4l-11-3c-5-1-8,0-8,4l-1,27l-21-1c-4,0-8,16-3,16l23,1l-1,46v3c-3,19-16,29-16,29c3-12-3-22-13-30l-20-15c0,0,5-4,9-14
	c3-7,3-14-4-16c-12-3-22,6-25,16c-3,7-2,13,3,18l1,2l-10,18c-9,15-15,28-21,28c-4,0-4-13-4-24l2-41c0-5-3-8-7-11c-3-2-8-5-11-5
	c-5,0-19,1-33,39l-5,14l1-46l-2-3c-2-1-8-4-14-4c-2,0-3,1-3,4l-1,72l1,15l2,6l5,3c2,0,12,2,13-2c0-5,0-10,6-30c8-30,20-45,25-50h2
	l-2,38c-1,37,6,44,16,44c7,0,18-7,29-26l19-32l11,11c9,8,12,16,10,24c-2,6-7,12-17,6l-7-5h-6c-3,3-6,6-7,11c-1,4,3,6,8,8
	c4,2,12,3,17,4c21,0,37-10,49-38c2,24,11,37,26,37c10,0,20-13,25-26c1,6,3,10,6,14c11,19,34,15,46-1l4-7c1,15,13,20,20,20
	c8,0,16-3,21-16l3,4c11,19,34,15,46-1l1-2v10l-10,9c-18,16-31,29-32,43c-2,18,13,25,24,26c12,1,22-6,29-15c5-8,9-25,9-43l-1-25
	c16.8-19.4,29.7-41.8,38-66h14c2,0,2,0,2,2s-9,34-1,55c5,15,17,19,24,19c8,0,16-6,20-15l1,3c12,19,35,15,46-1l4-7c3,16,15,20,22,20
	s14-3,19-16l1,12l4,3c7,2,13,1,16,1c2-1,3-2,3-6c1-9,0-25,3-36c5-20,9-27,11-31c2-2,3-2,3,0l2,35c1,13,3,21,5,23c4,7,8,8,12,8
	c3,0,8-1,8-5c0-3,0-16,5-35c3-13,8-24,10-28c-0.8,17.4,0.2,34.8,3,52c5,21,18,23,23,23c11,0,19-7,22-28C816,136,815,132,812,132"/>
<g>
	<path fill="#F4DAAB" d="M536.6,194.1c4.2-0.9,10.3-1.4,16.1-1.4c8.9,0,14.7,1.7,18.7,5.3c3.2,2.8,5.1,7.2,5.1,12.3
		c0,8.5-5.4,14.2-12.2,16.5v0.2c4.9,1.7,7.9,6.4,9.5,13.1c2.1,9,3.7,15.2,5,17.8h-8.7c-1-1.9-2.5-7.4-4.3-15.5
		c-1.9-8.9-5.4-12.3-13-12.5h-7.9v28h-8.3V194.1z M544.9,223.5h8.5c8.9,0,14.6-4.9,14.6-12.3c0-8.4-6.1-12.1-14.9-12.1
		c-4.1,0-6.9,0.4-8.3,0.7V223.5z"/>
	<path fill="#F4DAAB" d="M593.1,236.2c0.2,11.4,7.4,16.1,15.9,16.1c6,0,9.7-1.1,12.9-2.4l1.5,6c-3,1.3-8.1,3-15.5,3
		c-14.3,0-22.8-9.5-22.8-23.4c0-14.1,8.3-25.1,21.8-25.1c15.1,0,19.1,13.3,19.1,21.8c0,1.8-0.1,3-0.3,4H593.1z M617.8,230.1
		c0.1-5.3-2.2-13.7-11.6-13.7c-8.6,0-12.3,7.8-13,13.7H617.8z"/>
	<path fill="#F4DAAB" d="M636.5,226.6c0-5.9-0.2-10.7-0.4-15.1h7.5l0.5,7.9h0.2c3.4-5.7,8.9-9,16.5-9c11.2,0,19.7,9.5,19.7,23.6
		c0,16.7-10.2,25-21.1,25c-6.2,0-11.5-2.7-14.3-7.3h-0.2v25.3h-8.4V226.6z M644.8,239c0,1.2,0.1,2.4,0.4,3.4
		c1.5,5.9,6.6,9.9,12.6,9.9c9,0,14.1-7.3,14.1-18c0-9.3-4.9-17.2-13.8-17.2c-5.7,0-11.2,4.1-12.8,10.4c-0.3,1.1-0.5,2.3-0.5,3.4V239
		z"/>
	<path fill="#F4DAAB" d="M691.1,189.7h8.4v68.2h-8.4V189.7z"/>
	<path fill="#F4DAAB" d="M723.2,198.3c0,2.9-2,5.2-5.4,5.2c-3.1,0-5.1-2.4-5.1-5.2c0-2.9,2.2-5.3,5.2-5.3
		C721.1,193.1,723.2,195.4,723.2,198.3z M713.8,257.9v-46.4h8.4v46.4H713.8z"/>
	<path fill="#F4DAAB" d="M769.3,256.2c-2.2,1.1-7.1,2.7-13.3,2.7c-14,0-23.2-9.5-23.2-23.7c0-14.3,9.8-24.8,24.9-24.8
		c5,0,9.5,1.3,11.7,2.5l-1.9,6.5c-2.1-1.1-5.2-2.2-9.9-2.2c-10.6,0-16.4,7.9-16.4,17.6c0,10.8,6.9,17.4,16.2,17.4
		c4.7,0,7.9-1.2,10.3-2.2L769.3,256.2z"/>
	<path fill="#F4DAAB" d="M805.1,257.9l-0.7-5.9h-0.3c-2.5,3.6-7.6,6.9-14.2,6.9c-9.4,0-14.2-6.7-14.2-13.3c0-11.2,10-17.4,27.9-17.3
		v-1c0-3.8-1.1-10.8-10.6-10.7c-4.3,0-8.8,1.3-12.1,3.5l-1.9-5.6c3.8-2.5,9.5-4.1,15.3-4.1c14.2,0,17.7,9.7,17.7,19v17.4
		c0,4,0.2,7.9,0.7,11.1H805.1z M803.7,234.2c-9.1-0.2-19.6,1.4-19.6,10.4c0,5.5,3.6,8.1,7.9,8.1c6.1,0,10-3.8,11.3-7.8
		c0.3-0.9,0.4-1.9,0.4-2.7V234.2z"/>
</g>
</svg>
